# xmcd CD database file
#
# Track frame offsets:
#	150
#	18289
#	38838
#	51662
#	70136
#	88375
#	110015
#	128011
#	144835
#	158016
#	168897
#	182424
#
# Disc length: 2561 seconds
#
# Revision: 1
# Processed by: cddbd v1.5.1PL0 Copyright (c) Steve Scherf et al.
# Submitted via: CDex 1.51
#
DISCID=9b09ff0c
DTITLE=Kasey Chambers - The Captain
DYEAR=1900
DGENRE=Country
TTITLE0=Cry Like A Baby
TTITLE1=The Captain
TTITLE2=This Flower
TTITLE3=You Got The Car
TTITLE4=These Pines
TTITLE5=Don't Talk Back
TTITLE6=Southern Kind Of Life
TTITLE7=Mr Baylis
TTITLE8=The Hard Way
TTITLE9=Last Hard Bible
TTITLE10=Don't Go
TTITLE11=We're All Gonna Die Someday
EXTD=
EXTT0=
EXTT1=
EXTT2=
EXTT3=
EXTT4=
EXTT5=
EXTT6=
EXTT7=
EXTT8=
EXTT9=
EXTT10=
EXTT11=
PLAYORDER=
